<svg width="110" height="26" viewBox="0 0 110 26" fill="none" xmlns="http://www.w3.org/2000/svg">
<rect x="1" y="1" width="108" height="24" rx="12" stroke="#AAAAAA"/>
<path d="M9.924 17V8.6H12.828C15.228 8.6 16.764 10.376 16.764 12.8C16.764 15.236 15.228 17 12.828 17H9.924ZM11.004 16.1H12.768C14.532 16.1 15.612 14.78 15.612 12.8C15.612 10.808 14.532 9.512 12.768 9.512H11.004V16.1ZM18.0423 17V10.952H19.0983V17H18.0423ZM17.9823 9.92V8.6H19.1703V9.92H17.9823ZM22.9467 17.156C21.3627 17.156 20.3787 16.4 20.2707 15.104H21.3507C21.4947 15.908 22.0347 16.304 22.9707 16.304C23.7867 16.304 24.3027 15.932 24.3027 15.344C24.3027 14.9 23.9667 14.588 23.3427 14.468L22.1667 14.24C21.2907 14.072 20.4507 13.664 20.4507 12.548C20.4507 11.552 21.3867 10.796 22.8027 10.796C24.1707 10.796 25.1667 11.372 25.2867 12.68H24.2187C24.0987 12.008 23.6067 11.648 22.7907 11.648C22.0227 11.648 21.5067 12.008 21.5067 12.524C21.5067 13.016 21.9267 13.232 22.4187 13.328L23.6667 13.568C24.5307 13.736 25.3947 14.204 25.3947 15.284C25.3947 16.412 24.3867 17.156 22.9467 17.156ZM26.5841 18.992V10.952H27.6401V11.864C28.1321 11.132 28.8161 10.796 29.6561 10.796C31.1321 10.796 32.2961 12.092 32.2961 13.988C32.2961 15.884 31.1321 17.156 29.6561 17.156C28.8161 17.156 28.0721 16.784 27.6401 16.1V18.992H26.5841ZM27.5801 13.976C27.5801 15.296 28.2641 16.268 29.4041 16.268C30.5561 16.268 31.2041 15.32 31.2041 13.988C31.2041 12.668 30.5561 11.672 29.4041 11.672C28.2641 11.672 27.5801 12.668 27.5801 13.976ZM33.511 17V8.6H34.567V17H33.511ZM37.8395 17.156C36.6035 17.156 35.8115 16.436 35.8115 15.368C35.8115 13.952 37.0235 13.64 38.0075 13.508L39.3155 13.34C39.7955 13.268 39.8915 12.992 39.8915 12.716C39.8915 12.128 39.4955 11.648 38.5835 11.648C37.6835 11.648 37.1675 12.068 37.0715 12.812H36.0155C36.1475 11.6 37.1195 10.796 38.5595 10.796C40.1675 10.796 40.9355 11.6 40.9355 12.956V15.896C40.9355 16.028 41.0435 16.124 41.1875 16.124H41.5595V17H40.8395C40.2635 17 39.9515 16.7 39.9515 16.256V16.112C39.4235 16.892 38.5835 17.156 37.8395 17.156ZM36.9035 15.32C36.9035 15.944 37.3715 16.304 38.1035 16.304C39.1835 16.304 39.8915 15.512 39.8915 14.324V13.892C39.6875 14 39.4835 14.036 39.2795 14.072L38.2115 14.24C37.2995 14.384 36.9035 14.708 36.9035 15.32ZM42.2124 18.992V18.14H43.2564C43.6284 18.14 43.8084 18.056 43.9524 17.696L44.2524 16.892L41.8164 10.952H42.9564L44.7684 15.536L46.4724 10.952H47.5764L44.8524 18.056C44.5644 18.836 44.1084 18.992 43.4004 18.992H42.2124ZM51.0646 17V10.952H52.1206V11.816C52.4566 11.144 53.2006 10.796 53.9206 10.796C54.7126 10.796 55.3846 11.288 55.6006 12.044C55.9486 11.312 56.6686 10.796 57.6766 10.796C58.9966 10.796 59.7646 11.612 59.7646 13.1V17H58.7086V13.28C58.7086 12.224 58.2406 11.684 57.4246 11.684C56.4886 11.684 55.9486 12.428 55.9486 13.496V17H54.8926V13.28C54.8926 12.224 54.4126 11.684 53.5846 11.684C52.7926 11.684 52.1206 12.428 52.1206 13.496V17H51.0646ZM63.7928 17.156C61.9568 17.156 60.8768 15.788 60.8768 13.976C60.8768 12.176 61.9568 10.796 63.7928 10.796C65.6288 10.796 66.7088 12.176 66.7088 13.976C66.7088 15.788 65.6288 17.156 63.7928 17.156ZM61.9688 13.964C61.9688 15.152 62.4608 16.28 63.7928 16.28C65.1128 16.28 65.6168 15.152 65.6168 13.964C65.6168 12.788 65.1128 11.672 63.7928 11.672C62.4608 11.672 61.9688 12.788 61.9688 13.964ZM70.1493 17.156C68.6973 17.156 67.5213 15.86 67.5213 13.952C67.5213 12.056 68.6973 10.796 70.1493 10.796C71.0133 10.796 71.7573 11.156 72.1773 11.852V8.6H73.2333V17H72.1773V16.088C71.6973 16.808 71.0133 17.156 70.1493 17.156ZM68.6133 13.952C68.6133 15.284 69.2733 16.268 70.4253 16.268C71.5653 16.268 72.2373 15.284 72.2373 13.964C72.2373 12.656 71.5653 11.672 70.4253 11.672C69.2733 11.672 68.6133 12.632 68.6133 13.952ZM77.3391 17.156C75.5631 17.156 74.4471 15.8 74.4471 13.976C74.4471 12.164 75.5631 10.796 77.3391 10.796C78.8391 10.796 80.1591 11.648 80.0151 14.252H75.5391C75.6111 15.356 76.1271 16.28 77.3391 16.28C78.1431 16.28 78.6711 15.872 78.8871 15.104H79.9431C79.7151 16.304 78.7911 17.156 77.3391 17.156ZM75.5631 13.448H78.9831C78.9111 12.236 78.3471 11.66 77.3391 11.66C76.2351 11.66 75.6951 12.452 75.5631 13.448Z" fill="#AAAAAA"/>
<path d="M99.0001 7H87.0001C86.2601 7 85.6667 7.59333 85.6667 8.33333V17.6667C85.6667 18.4067 86.2601 19 87.0001 19H99.0001C99.7401 19 100.333 18.4067 100.333 17.6667V8.33333C100.333 7.59333 99.7401 7 99.0001 7ZM99.0001 17.68H87.0001V8.32H99.0001V17.68ZM91.6667 13H90.3334L93.0001 10.3333L95.6667 13H94.3334V15.6667H91.6667V13Z" fill="#AAAAAA"/>
</svg>
