<svg width="20" height="28" viewBox="0 0 20 28" fill="none" xmlns="http://www.w3.org/2000/svg">
<path fill-rule="evenodd" clip-rule="evenodd" d="M9.99986 5.47925C7.64693 5.47925 5.73951 7.38668 5.73951 9.73961C5.73951 12.0925 7.64693 14 9.99986 14V19.3254C8.46971 19.3254 7.02331 18.9669 5.74005 18.3293C5.77688 20.6504 7.66996 22.5207 9.99986 22.5207C12.3528 22.5207 14.2602 20.6132 14.2602 18.2603C14.2602 15.9074 12.3528 14 9.99986 14V8.67452C11.53 8.67452 12.9764 9.03304 14.2597 9.67066C14.2228 7.34953 12.3298 5.47925 9.99986 5.47925ZM14.3957 9.73961H19.5857C19.5857 4.44552 15.294 0.153809 9.99986 0.153809C4.70577 0.153809 0.414062 4.44552 0.414062 9.73961C0.414062 13.4492 2.52128 16.6667 5.60402 18.2603H0.414063C0.414063 23.5544 4.70577 27.8461 9.99986 27.8461C15.294 27.8461 19.5857 23.5544 19.5857 18.2603C19.5857 14.5507 17.4784 11.3332 14.3957 9.73961Z" fill="#111111"/>
</svg>
